ffmpeg started on 2025-05-28 at 21:49:34
Report written to "D:\Convert\FFMetrics\reports\psnr_report-6.txt"
Log level: 32
Command line:
ffmpeg -hide_banner -nostdin -i "G:\\\xc0\xed\xe8\xec\xe5\\\xce\xed\xe3\xee\xe8\xed\xe3\xe8\\!_36_\xce\xf1\xe5\xed\xfc_2024\\JamClub\\\xcc\xe5\xf5\xe0\xed\xe8\xf7\xe5\xf1\xea\xe8\xe5 \xf0\xf3\xea\xe8\\JamClub_Mecha_ude_TV_01_1080p_HEVC.mkv" -i "G:\\\xc0\xed\xe8\xec\xe5\\\xce\xed\xe3\xee\xe8\xed\xe3\xe8\\!_36_\xce\xf1\xe5\xed\xfc_2024\\JamClub\\\xcc\xe5\xf5\xe0\xed\xe8\xf7\xe5\xf1\xea\xe8\xe5 \xf0\xf3\xea\xe8\\JamClub_Mecha_ude_TV_01_1080p.mp4" -lavfi "[0:v]settb=AVTB,setpts=PTS-STARTPTS,format=pix_fmts=yuv420p10,fps=24000/1001,scale=1920:1080:flags=bicubic[main];[1:v]settb=AVTB,setpts=PTS-STARTPTS,format=pix_fmts=yuv420p,fps=24000/1001,scale=1920:1080:flags=bicubic[ref];[main][ref]psnr=eof_action=endall:stats_file='D\\:/Convert/FFMetrics/logs/psnr_logfile-6.txt'" -f null -
Input #0, matroska,webm, from 'G:\Аниме\Онгоинги\!_36_Осень_2024\JamClub\Механические руки\JamClub_Mecha_ude_TV_01_1080p_HEVC.mkv':
  Metadata:
    COMPATIBLE_BRANDS: isomiso2avc1mp41
    MAJOR_BRAND     : isom
    MINOR_VERSION   : 512
    ENCODER         : Lavf61.7.100
  Duration: 00:24:04.80, start: -0.021000, bitrate: 1536 kb/s
  Stream #0:0: Video: hevc (Main 10), yuv420p10le(tv, bt709, progressive), 1920x1080 [SAR 1:1 DAR 16:9], 23.98 fps, 23.98 tbr, 1k tbn (default)
      Metadata:
        HANDLER_NAME    : VideoHandler
        VENDOR_ID       : [0][0][0][0]
        ENCODER         : Lavc61.19.100 libx265
        BPS             : 1339039
        DURATION        : 00:24:04.150708333
        NUMBER_OF_FRAMES: 34625
        NUMBER_OF_BYTES : 241721649
        _STATISTICS_WRITING_APP: mkvpropedit v66.0.0 ('Josie') 64-bit
        _STATISTICS_WRITING_DATE_UTC: 2025-05-28 14:18:55
        _STATISTICS_TAGS: BPS DURATION NUMBER_OF_FRAMES NUMBER_OF_BYTES
  Stream #0:1(eng): Audio: aac (LC), 48000 Hz, stereo, fltp (default)
      Metadata:
        HANDLER_NAME    : SoundHandler
        VENDOR_ID       : [0][0][0][0]
        ENCODER         : Lavc61.19.100 aac
        BPS             : 193997
        DURATION        : 00:24:04.781000000
        NUMBER_OF_FRAMES: 67725
        NUMBER_OF_BYTES : 35035487
        _STATISTICS_WRITING_APP: mkvpropedit v66.0.0 ('Josie') 64-bit
        _STATISTICS_WRITING_DATE_UTC: 2025-05-28 14:18:55
        _STATISTICS_TAGS: BPS DURATION NUMBER_OF_FRAMES NUMBER_OF_BYTES
Input #1, mov,mp4,m4a,3gp,3g2,mj2, from 'G:\Аниме\Онгоинги\!_36_Осень_2024\JamClub\Механические руки\JamClub_Mecha_ude_TV_01_1080p.mp4':
  Metadata:
    major_brand     : isom
    minor_version   : 512
    compatible_brands: isomiso2avc1mp41
    encoder         : Lavf60.16.100
  Duration: 00:24:04.78, start: 0.000000, bitrate: 4336 kb/s
  Stream #1:0[0x1](und): Video: h264 (High) (avc1 / 0x31637661), yuv420p(tv, bt709, progressive), 1920x1080 [SAR 1:1 DAR 16:9], 4139 kb/s, 23.98 fps, 23.98 tbr, 90k tbn (default)
      Metadata:
        handler_name    : VideoHandler
        vendor_id       : [0][0][0][0]
  Stream #1:1[0x2](eng): Audio: aac (LC) (mp4a / 0x6134706D), 48000 Hz, stereo, fltp, 191 kb/s (default)
      Metadata:
        handler_name    : SoundHandler
        vendor_id       : [0][0][0][0]
Stream mapping:
  Stream #0:0 (hevc) -> settb:default
  Stream #1:0 (h264) -> settb:default
  psnr:default -> Stream #0:0 (wrapped_avframe)
  Stream #0:1 -> #0:1 (aac (native) -> pcm_s16le (native))
Output #0, null, to 'pipe:':
  Metadata:
    COMPATIBLE_BRANDS: isomiso2avc1mp41
    MAJOR_BRAND     : isom
    MINOR_VERSION   : 512
    encoder         : Lavf61.7.100
  Stream #0:0: Video: wrapped_avframe, yuv420p10le(tv, bt709, progressive), 1920x1080 [SAR 1:1 DAR 16:9], q=2-31, 200 kb/s, 23.98 fps, 23.98 tbn
      Metadata:
        encoder         : Lavc61.19.100 wrapped_avframe
  Stream #0:1(eng): Audio: pcm_s16le, 48000 Hz, stereo, s16, 1536 kb/s (default)
      Metadata:
        HANDLER_NAME    : SoundHandler
        VENDOR_ID       : [0][0][0][0]
        _STATISTICS_TAGS: BPS DURATION NUMBER_OF_FRAMES NUMBER_OF_BYTES
        BPS             : 193997
        DURATION        : 00:24:04.781000000
        NUMBER_OF_FRAMES: 67725
        NUMBER_OF_BYTES : 35035487
        _STATISTICS_WRITING_APP: mkvpropedit v66.0.0 ('Josie') 64-bit
        _STATISTICS_WRITING_DATE_UTC: 2025-05-28 14:18:55
        encoder         : Lavc61.19.100 pcm_s16le
frame=  118 fps=0.0 q=-0.0 size=N/A time=00:00:04.92 bitrate=N/A speed=9.73x    frame=  286 fps=277 q=-0.0 size=N/A time=00:00:11.92 bitrate=N/A speed=11.6x    frame=  504 fps=324 q=-0.0 size=N/A time=00:00:21.02 bitrate=N/A speed=13.5x    frame=  740 fps=356 q=-0.0 size=N/A time=00:00:30.86 bitrate=N/A speed=14.9x    frame=  974 fps=377 q=-0.0 size=N/A time=00:00:40.62 bitrate=N/A speed=15.7x    frame= 1184 fps=381 q=-0.0 size=N/A time=00:00:49.38 bitrate=N/A speed=15.9x    frame= 1395 fps=386 q=-0.0 size=N/A time=00:00:58.18 bitrate=N/A speed=16.1x    frame= 1596 fps=386 q=-0.0 size=N/A time=00:01:06.56 bitrate=N/A speed=16.1x    frame= 1772 fps=381 q=-0.0 size=N/A time=00:01:13.90 bitrate=N/A speed=15.9x    frame= 2003 fps=388 q=-0.0 size=N/A time=00:01:23.54 bitrate=N/A speed=16.2x    frame= 2179 fps=383 q=-0.0 size=N/A time=00:01:30.88 bitrate=N/A speed=  16x    frame= 2384 fps=384 q=-0.0 size=N/A time=00:01:39.43 bitrate=N/A speed=  16x    frame= 2610 fps=388 q=-0.0 size=N/A time=00:01:48.85 bitrate=N/A speed=16.2x    frame= 2805 fps=387 q=-0.0 size=N/A time=00:01:56.99 bitrate=N/A speed=16.1x    frame= 3010 fps=388 q=-0.0 size=N/A time=00:02:05.54 bitrate=N/A speed=16.2x    frame= 3297 fps=398 q=-0.0 size=N/A time=00:02:17.51 bitrate=N/A speed=16.6x    frame= 3484 fps=397 q=-0.0 size=N/A time=00:02:25.31 bitrate=N/A speed=16.5x    frame= 3658 fps=393 q=-0.0 size=N/A time=00:02:32.56 bitrate=N/A speed=16.4x    frame= 3833 fps=391 q=-0.0 size=N/A time=00:02:39.86 bitrate=N/A speed=16.3x    frame= 4034 fps=390 q=-0.0 size=N/A time=00:02:48.25 bitrate=N/A speed=16.3x    frame= 4283 fps=395 q=-0.0 size=N/A time=00:02:58.63 bitrate=N/A speed=16.5x    frame= 4529 fps=398 q=-0.0 size=N/A time=00:03:08.89 bitrate=N/A speed=16.6x    frame= 4719 fps=397 q=-0.0 size=N/A time=00:03:16.82 bitrate=N/A speed=16.6x    frame= 4918 fps=397 q=-0.0 size=N/A time=00:03:25.12 bitrate=N/A speed=16.5x    frame= 5109 fps=395 q=-0.0 size=N/A time=00:03:33.08 bitrate=N/A speed=16.5x    frame= 5307 fps=395 q=-0.0 size=N/A time=00:03:41.34 bitrate=N/A speed=16.5x    frame= 5462 fps=391 q=-0.0 size=N/A time=00:03:47.81 bitrate=N/A speed=16.3x    frame= 5610 fps=388 q=-0.0 size=N/A time=00:03:53.98 bitrate=N/A speed=16.2x    frame= 5782 fps=385 q=-0.0 size=N/A time=00:04:01.15 bitrate=N/A speed=16.1x    frame= 5974 fps=385 q=-0.0 size=N/A time=00:04:09.16 bitrate=N/A speed=16.1x    frame= 6202 fps=387 q=-0.0 size=N/A time=00:04:18.67 bitrate=N/A speed=16.1x    frame= 6448 fps=390 q=-0.0 size=N/A time=00:04:28.93 bitrate=N/A speed=16.3x    frame= 6704 fps=393 q=-0.0 size=N/A time=00:04:39.61 bitrate=N/A speed=16.4x    frame= 6977 fps=397 q=-0.0 size=N/A time=00:04:50.99 bitrate=N/A speed=16.6x    frame= 7214 fps=399 q=-0.0 size=N/A time=00:05:00.88 bitrate=N/A speed=16.6x    frame= 7470 fps=401 q=-0.0 size=N/A time=00:05:11.56 bitrate=N/A speed=16.7x    frame= 7690 fps=402 q=-0.0 size=N/A time=00:05:20.73 bitrate=N/A speed=16.8x    frame= 7933 fps=404 q=-0.0 size=N/A time=00:05:30.87 bitrate=N/A speed=16.8x    frame= 8218 fps=407 q=-0.0 size=N/A time=00:05:42.75 bitrate=N/A speed=  17x    frame= 8462 fps=409 q=-0.0 size=N/A time=00:05:52.93 bitrate=N/A speed=17.1x    frame= 8736 fps=412 q=-0.0 size=N/A time=00:06:04.36 bitrate=N/A speed=17.2x    frame= 9002 fps=415 q=-0.0 size=N/A time=00:06:15.45 bitrate=N/A speed=17.3x    frame= 9254 fps=416 q=-0.0 size=N/A time=00:06:25.96 bitrate=N/A speed=17.4x    frame= 9520 fps=418 q=-0.0 size=N/A time=00:06:37.06 bitrate=N/A speed=17.5x    frame= 9767 fps=420 q=-0.0 size=N/A time=00:06:47.36 bitrate=N/A speed=17.5x    frame=10028 fps=422 q=-0.0 size=N/A time=00:06:58.25 bitrate=N/A speed=17.6x    frame=10275 fps=423 q=-0.0 size=N/A time=00:07:08.55 bitrate=N/A speed=17.6x    frame=10525 fps=424 q=-0.0 size=N/A time=00:07:18.98 bitrate=N/A speed=17.7x    frame=10768 fps=425 q=-0.0 size=N/A time=00:07:29.11 bitrate=N/A speed=17.7x    frame=11009 fps=426 q=-0.0 size=N/A time=00:07:39.16 bitrate=N/A speed=17.8x    frame=11229 fps=426 q=-0.0 size=N/A time=00:07:48.34 bitrate=N/A speed=17.8x    frame=11461 fps=427 q=-0.0 size=N/A time=00:07:58.01 bitrate=N/A speed=17.8x    frame=11736 fps=428 q=-0.0 size=N/A time=00:08:09.48 bitrate=N/A speed=17.9x    frame=12007 fps=430 q=-0.0 size=N/A time=00:08:20.79 bitrate=N/A speed=17.9x    frame=12250 fps=431 q=-0.0 size=N/A time=00:08:30.92 bitrate=N/A speed=  18x    frame=12502 fps=432 q=-0.0 size=N/A time=00:08:41.43 bitrate=N/A speed=  18x    frame=12736 fps=433 q=-0.0 size=N/A time=00:08:51.19 bitrate=N/A speed=  18x    frame=12988 fps=433 q=-0.0 size=N/A time=00:09:01.70 bitrate=N/A speed=18.1x    frame=13240 fps=434 q=-0.0 size=N/A time=00:09:12.21 bitrate=N/A speed=18.1x    frame=13472 fps=435 q=-0.0 size=N/A time=00:09:21.89 bitrate=N/A speed=18.1x    frame=13743 fps=436 q=-0.0 size=N/A time=00:09:33.19 bitrate=N/A speed=18.2x    frame=14002 fps=437 q=-0.0 size=N/A time=00:09:44.00 bitrate=N/A speed=18.2x    frame=14262 fps=438 q=-0.0 size=N/A time=00:09:54.84 bitrate=N/A speed=18.3x    frame=14496 fps=438 q=-0.0 size=N/A time=00:10:04.60 bitrate=N/A speed=18.3x    frame=14718 fps=438 q=-0.0 size=N/A time=00:10:13.86 bitrate=N/A speed=18.3x    frame=14929 fps=438 q=-0.0 size=N/A time=00:10:22.66 bitrate=N/A speed=18.3x    frame=15178 fps=439 q=-0.0 size=N/A time=00:10:33.04 bitrate=N/A speed=18.3x    frame=15433 fps=439 q=-0.0 size=N/A time=00:10:43.68 bitrate=N/A speed=18.3x    frame=15702 fps=441 q=-0.0 size=N/A time=00:10:54.90 bitrate=N/A speed=18.4x    frame=15957 fps=441 q=-0.0 size=N/A time=00:11:05.53 bitrate=N/A speed=18.4x    frame=16227 fps=443 q=-0.0 size=N/A time=00:11:16.80 bitrate=N/A speed=18.5x    frame=16481 fps=443 q=-0.0 size=N/A time=00:11:27.39 bitrate=N/A speed=18.5x    frame=16750 fps=444 q=-0.0 size=N/A time=00:11:38.61 bitrate=N/A speed=18.5x    frame=16994 fps=445 q=-0.0 size=N/A time=00:11:48.79 bitrate=N/A speed=18.5x    frame=17217 fps=445 q=-0.0 size=N/A time=00:11:58.09 bitrate=N/A speed=18.5x    frame=17366 fps=443 q=-0.0 size=N/A time=00:12:04.30 bitrate=N/A speed=18.5x    frame=17554 fps=442 q=-0.0 size=N/A time=00:12:12.14 bitrate=N/A speed=18.4x    frame=17798 fps=442 q=-0.0 size=N/A time=00:12:22.32 bitrate=N/A speed=18.4x    frame=18014 fps=442 q=-0.0 size=N/A time=00:12:31.33 bitrate=N/A speed=18.4x    frame=18269 fps=442 q=-0.0 size=N/A time=00:12:41.96 bitrate=N/A speed=18.4x    frame=18530 fps=443 q=-0.0 size=N/A time=00:12:52.85 bitrate=N/A speed=18.5x    frame=18765 fps=443 q=-0.0 size=N/A time=00:13:02.65 bitrate=N/A speed=18.5x    frame=19011 fps=444 q=-0.0 size=N/A time=00:13:12.91 bitrate=N/A speed=18.5x    frame=19280 fps=445 q=-0.0 size=N/A time=00:13:24.13 bitrate=N/A speed=18.5x    frame=19495 fps=444 q=-0.0 size=N/A time=00:13:33.10 bitrate=N/A speed=18.5x    frame=19763 fps=445 q=-0.0 size=N/A time=00:13:44.28 bitrate=N/A speed=18.6x    frame=20031 fps=446 q=-0.0 size=N/A time=00:13:55.45 bitrate=N/A speed=18.6x    frame=20243 fps=446 q=-0.0 size=N/A time=00:14:04.30 bitrate=N/A speed=18.6x    frame=20492 fps=446 q=-0.0 size=N/A time=00:14:14.68 bitrate=N/A speed=18.6x    frame=20696 fps=445 q=-0.0 size=N/A time=00:14:23.19 bitrate=N/A speed=18.6x    frame=20978 fps=447 q=-0.0 size=N/A time=00:14:34.95 bitrate=N/A speed=18.6x    frame=21247 fps=447 q=-0.0 size=N/A time=00:14:46.17 bitrate=N/A speed=18.7x    frame=21501 fps=448 q=-0.0 size=N/A time=00:14:56.77 bitrate=N/A speed=18.7x    frame=21755 fps=448 q=-0.0 size=N/A time=00:15:07.36 bitrate=N/A speed=18.7x    frame=22025 fps=449 q=-0.0 size=N/A time=00:15:18.62 bitrate=N/A speed=18.7x    frame=22281 fps=450 q=-0.0 size=N/A time=00:15:29.30 bitrate=N/A speed=18.8x    frame=22508 fps=450 q=-0.0 size=N/A time=00:15:38.77 bitrate=N/A speed=18.8x    frame=22663 fps=448 q=-0.0 size=N/A time=00:15:45.23 bitrate=N/A speed=18.7x    frame=22922 fps=449 q=-0.0 size=N/A time=00:15:56.03 bitrate=N/A speed=18.7x    frame=23180 fps=449 q=-0.0 size=N/A time=00:16:06.79 bitrate=N/A speed=18.7x    frame=23465 fps=450 q=-0.0 size=N/A time=00:16:18.68 bitrate=N/A speed=18.8x    frame=23730 fps=451 q=-0.0 size=N/A time=00:16:29.73 bitrate=N/A speed=18.8x    frame=23929 fps=450 q=-0.0 size=N/A time=00:16:38.03 bitrate=N/A speed=18.8x    frame=24143 fps=450 q=-0.0 size=N/A time=00:16:46.96 bitrate=N/A speed=18.8x    frame=24315 fps=449 q=-0.0 size=N/A time=00:16:54.13 bitrate=N/A speed=18.7x    frame=24543 fps=449 q=-0.0 size=N/A time=00:17:03.64 bitrate=N/A speed=18.7x    frame=24789 fps=449 q=-0.0 size=N/A time=00:17:13.90 bitrate=N/A speed=18.7x    frame=25050 fps=449 q=-0.0 size=N/A time=00:17:24.79 bitrate=N/A speed=18.7x    frame=25325 fps=450 q=-0.0 size=N/A time=00:17:36.26 bitrate=N/A speed=18.8x    frame=25550 fps=450 q=-0.0 size=N/A time=00:17:45.64 bitrate=N/A speed=18.8x    frame=25796 fps=450 q=-0.0 size=N/A time=00:17:55.90 bitrate=N/A speed=18.8x    frame=26012 fps=450 q=-0.0 size=N/A time=00:18:04.91 bitrate=N/A speed=18.8x    frame=26212 fps=449 q=-0.0 size=N/A time=00:18:13.25 bitrate=N/A speed=18.7x    frame=26467 fps=450 q=-0.0 size=N/A time=00:18:23.89 bitrate=N/A speed=18.8x    frame=26727 fps=450 q=-0.0 size=N/A time=00:18:34.73 bitrate=N/A speed=18.8x    frame=26963 fps=450 q=-0.0 size=N/A time=00:18:44.58 bitrate=N/A speed=18.8x    frame=27209 fps=451 q=-0.0 size=N/A time=00:18:54.84 bitrate=N/A speed=18.8x    frame=27447 fps=451 q=-0.0 size=N/A time=00:19:04.76 bitrate=N/A speed=18.8x    frame=27677 fps=451 q=-0.0 size=N/A time=00:19:14.36 bitrate=N/A speed=18.8x    frame=27940 fps=451 q=-0.0 size=N/A time=00:19:25.33 bitrate=N/A speed=18.8x    frame=28116 fps=450 q=-0.0 size=N/A time=00:19:32.67 bitrate=N/A speed=18.8x    frame=28279 fps=449 q=-0.0 size=N/A time=00:19:39.46 bitrate=N/A speed=18.7x    frame=28471 fps=449 q=-0.0 size=N/A time=00:19:47.47 bitrate=N/A speed=18.7x    frame=28650 fps=448 q=-0.0 size=N/A time=00:19:54.94 bitrate=N/A speed=18.7x    frame=28891 fps=448 q=-0.0 size=N/A time=00:20:04.99 bitrate=N/A speed=18.7x    frame=29139 fps=448 q=-0.0 size=N/A time=00:20:15.33 bitrate=N/A speed=18.7x    frame=29367 fps=448 q=-0.0 size=N/A time=00:20:24.84 bitrate=N/A speed=18.7x    frame=29563 fps=448 q=-0.0 size=N/A time=00:20:33.02 bitrate=N/A speed=18.7x    frame=29751 fps=447 q=-0.0 size=N/A time=00:20:40.86 bitrate=N/A speed=18.6x    frame=29940 fps=446 q=-0.0 size=N/A time=00:20:48.74 bitrate=N/A speed=18.6x    frame=30208 fps=447 q=-0.0 size=N/A time=00:20:59.92 bitrate=N/A speed=18.6x    frame=30476 fps=447 q=-0.0 size=N/A time=00:21:11.10 bitrate=N/A speed=18.7x    frame=30765 fps=448 q=-0.0 size=N/A time=00:21:23.15 bitrate=N/A speed=18.7x    frame=31038 fps=449 q=-0.0 size=N/A time=00:21:34.54 bitrate=N/A speed=18.7x    frame=31303 fps=449 q=-0.0 size=N/A time=00:21:45.59 bitrate=N/A speed=18.7x    frame=31564 fps=450 q=-0.0 size=N/A time=00:21:56.48 bitrate=N/A speed=18.8x    frame=31833 fps=450 q=-0.0 size=N/A time=00:22:07.70 bitrate=N/A speed=18.8x    frame=32069 fps=450 q=-0.0 size=N/A time=00:22:17.54 bitrate=N/A speed=18.8x    frame=32348 fps=451 q=-0.0 size=N/A time=00:22:29.18 bitrate=N/A speed=18.8x    frame=32607 fps=451 q=-0.0 size=N/A time=00:22:39.98 bitrate=N/A speed=18.8x    frame=32859 fps=452 q=-0.0 size=N/A time=00:22:50.49 bitrate=N/A speed=18.8x    frame=33112 fps=452 q=-0.0 size=N/A time=00:23:01.04 bitrate=N/A speed=18.8x    frame=33355 fps=452 q=-0.0 size=N/A time=00:23:11.18 bitrate=N/A speed=18.9x    frame=33599 fps=452 q=-0.0 size=N/A time=00:23:21.35 bitrate=N/A speed=18.9x    frame=33851 fps=452 q=-0.0 size=N/A time=00:23:31.86 bitrate=N/A speed=18.9x    frame=34114 fps=453 q=-0.0 size=N/A time=00:23:42.83 bitrate=N/A speed=18.9x    frame=34344 fps=453 q=-0.0 size=N/A time=00:23:52.43 bitrate=N/A speed=18.9x    frame=34602 fps=453 q=-0.0 size=N/A time=00:24:03.19 bitrate=N/A speed=18.9x    [Parsed_psnr_10 @ 0000025fef213580] PSNR y:48.057505 u:50.647255 v:50.540393 average:48.750221 min:36.947082 max:inf
[out#0/null @ 0000025feeae06c0] video:14878KiB audio:270900KiB subtitle:0KiB other streams:0KiB global headers:0KiB muxing overhead: unknown
frame=34625 fps=453 q=-0.0 Lsize=N/A time=00:24:04.15 bitrate=N/A speed=18.9x    
